<?xml version="1.0" standalone="no"?>
<!DOCTYPE svg PUBLIC "-//W3C//DTD SVG 20010904//EN"
 "http://www.w3.org/TR/2001/REC-SVG-20010904/DTD/svg10.dtd">
<svg version="1.0" xmlns="http://www.w3.org/2000/svg"
 width="675.000000pt" height="675.000000pt" viewBox="0 0 675.000000 675.000000"
 preserveAspectRatio="xMidYMid meet">
<metadata>
Created by potrace 1.11, written by Peter Selinger 2001-2013
</metadata>
<g transform="translate(0.000000,675.000000) scale(0.100000,-0.100000)"
fill="#000000" stroke="none">
<path d="M871 4484 c-86 -25 -133 -84 -171 -214 -12 -41 -26 -86 -30 -100 -10
-28 1 5 -300 -980 -122 -399 -225 -738 -231 -754 -25 -78 4 -148 69 -165 47
-12 5612 -12 5655 0 48 14 106 59 132 103 13 23 37 86 53 141 16 55 65 213
107 350 42 138 78 257 80 265 3 8 23 74 45 145 23 72 42 135 44 140 1 6 8 28
14 50 6 22 11 42 11 45 0 3 5 19 11 35 11 28 84 263 167 535 95 314 94 310 68
360 -8 16 -25 35 -38 42 -30 17 -5629 19 -5686 2z m1378 -193 c24 -22 41 -55
41 -83 0 -20 -79 -288 -189 -643 l-30 -100 -96 -53 c-52 -30 -97 -58 -100 -62
-4 -6 103 -106 122 -115 8 -4 -202 -665 -219 -690 -11 -17 -39 -44 -62 -60
l-41 -30 -492 -3 c-271 -1 -493 -1 -493 1 0 2 46 152 101 333 56 181 110 356
119 389 10 33 37 121 60 195 23 74 56 185 75 245 18 61 55 183 83 273 l49 162
-63 126 c-35 70 -64 127 -64 129 0 1 266 2 590 2 527 0 592 -2 609 -16z m1256
9 c4 -6 -141 -501 -150 -518 -2 -2 -151 -4 -296 -3 l-87 1 24 78 c13 42 22 82
20 87 -3 9 -142 12 -151 3 -4 -4 -115 -362 -115 -371 0 -4 109 -8 241 -9 l242
-3 -208 -165 c-114 -91 -213 -171 -220 -177 -7 -7 -37 -12 -67 -12 -105 2
-105 2 -113 -33 -4 -18 -9 -37 -11 -43 -1 -5 -49 -161 -106 -345 l-103 -335
-193 -3 c-181 -2 -193 -1 -188 15 3 10 19 63 36 118 17 55 40 129 51 164 58
186 303 985 334 1091 7 25 25 82 39 128 l25 83 -64 128 -64 128 560 0 c308 0
562 -4 564 -7z m988 -5 c0 -5 -4 -39 -8 -75 -3 -36 -8 -72 -10 -80 -2 -8 -7
-39 -10 -69 -4 -30 -8 -62 -10 -71 -2 -10 -11 -75 -20 -146 -9 -71 -18 -140
-20 -154 -5 -25 -22 -152 -31 -225 -2 -22 -7 -56 -10 -75 -2 -19 -7 -51 -9
-70 -2 -19 -7 -53 -10 -75 -4 -22 -8 -51 -10 -65 -2 -14 -6 -43 -9 -65 -3 -22
-8 -60 -11 -85 -4 -25 -8 -56 -10 -70 -2 -14 -7 -50 -10 -80 -3 -30 -8 -62
-10 -70 -2 -8 -6 -42 -10 -75 -3 -33 -8 -71 -10 -85 -5 -27 -10 -65 -21 -145
-3 -27 -8 -53 -11 -57 -2 -5 -96 -8 -209 -8 l-204 0 5 48 c3 26 8 66 10 89 5
40 -1 53 -118 245 -68 112 -129 212 -135 223 -10 20 -8 21 154 20 91 0 169 2
174 5 8 5 20 67 36 185 3 28 8 57 9 66 2 9 6 40 10 69 4 29 8 60 10 69 1 9 8
52 15 96 6 44 13 91 16 105 8 48 14 165 7 150 -3 -8 -28 -62 -56 -120 -27 -58
-62 -134 -79 -170 -16 -36 -59 -130 -96 -210 -36 -80 -71 -151 -78 -159 -9
-10 -46 -14 -148 -14 -75 0 -136 -3 -136 -7 0 -3 4 -10 9 -15 4 -6 40 -65 79
-132 l70 -121 -47 -99 c-26 -54 -71 -149 -101 -210 l-53 -113 -209 0 -208 0
35 70 c19 38 48 98 64 132 16 35 66 140 111 233 45 94 97 202 115 240 18 39
62 131 98 205 35 74 133 279 217 455 84 176 174 365 201 421 l49 101 318 -1
c205 -1 316 -5 315 -11z m1499 7 c21 -2 58 -62 58 -93 0 -13 -16 -76 -36 -139
-19 -63 -37 -122 -39 -130 -2 -8 -32 -105 -65 -215 -34 -110 -63 -204 -64
-210 -9 -40 -26 -56 -111 -103 -52 -30 -97 -58 -100 -62 -4 -6 101 -105 123
-115 1 -1 -7 -28 -17 -61 -10 -32 -31 -99 -46 -149 -15 -49 -38 -124 -51 -165
-106 -343 -97 -323 -173 -378 l-44 -32 -489 0 c-268 0 -488 3 -488 6 0 7 73
247 90 294 5 14 20 63 34 110 30 100 137 451 269 882 l94 307 -64 126 c-35 69
-63 127 -63 129 0 3 1151 1 1182 -2z"/>
<path d="M1536 3944 c-6 -6 -33 -82 -59 -170 l-48 -159 -60 -40 -59 -40 4 -50
c3 -27 8 -80 12 -116 7 -70 10 -57 -101 -414 -24 -76 -42 -141 -40 -144 4 -3
225 -5 286 -2 11 1 23 25 39 79 13 42 38 124 56 182 19 58 34 108 34 113 0 14
-21 7 -90 -32 -58 -33 -70 -37 -71 -23 -2 36 -7 79 -13 132 -3 30 -9 75 -11
100 -3 25 -7 63 -10 86 -5 39 -3 42 43 71 26 17 108 69 183 117 l136 87 28 97
c16 53 32 105 37 115 7 13 4 17 -9 18 -141 5 -278 2 -287 -7z"/>
<path d="M5240 3785 l-52 -170 -59 -40 -59 -40 5 -55 c2 -30 7 -83 10 -117 5
-55 1 -78 -36 -195 -22 -73 -45 -146 -49 -163 -4 -16 -19 -66 -33 -110 -15
-43 -25 -81 -22 -83 2 -2 57 -4 122 -4 195 0 178 -4 192 45 30 103 83 275 96
310 7 20 10 37 7 37 -4 0 -41 -20 -82 -44 -41 -24 -76 -43 -77 -42 -3 2 -10
63 -18 141 -7 74 -15 148 -21 196 l-5 36 184 116 184 117 31 107 c18 60 32
113 32 118 0 6 -57 10 -149 10 l-149 0 -52 -170z"/>
</g>
</svg>
