<?xml version="1.0" standalone="no"?>
<!DOCTYPE svg PUBLIC "-//W3C//DTD SVG 20010904//EN"
 "http://www.w3.org/TR/2001/REC-SVG-20010904/DTD/svg10.dtd">
<svg version="1.0" xmlns="http://www.w3.org/2000/svg"
 width="675.000000pt" height="264.000000pt" viewBox="0 0 675.000000 264.000000"
 preserveAspectRatio="xMidYMid meet">
<metadata>
Created by potrace 1.10, written by Peter Selinger 2001-2011
</metadata>
<g transform="translate(0.000000,264.000000) scale(0.050000,-0.050000)"
fill="#000000" stroke="none">
<path d="M1092 4962 c-99 -66 -118 -119 -520 -1436 -405 -1327 -421 -1393
-350 -1458 50 -45 7416 -72 7581 -27 182 49 159 -6 608 1459 448 1463 426
1374 368 1447 l-42 53 -3793 0 c-3700 0 -3795 -1 -3852 -38z m1935 -267 l41
-55 -96 -315 c-52 -173 -121 -400 -154 -505 l-58 -190 -130 -70 c-154 -83
-152 -78 -48 -167 l83 -71 -124 -406 c-156 -513 -153 -506 -238 -577 l-72 -59
-657 0 c-616 0 -656 2 -646 35 348 1128 632 2071 632 2098 0 18 -36 99 -80
179 -44 81 -80 151 -80 157 0 6 357 9 793 6 l793 -5 41 -55z m1653 53 c0 -7
-47 -164 -104 -350 l-103 -338 -256 0 -255 0 29 83 c47 133 43 140 -75 133
l-103 -6 -74 -245 -74 -245 320 0 c256 0 316 -5 299 -25 -125 -151 -551 -446
-657 -455 l-114 -10 -153 -500 -153 -500 -254 -6 c-139 -3 -253 0 -253 7 0 6
145 485 322 1065 l323 1053 -83 166 c-45 91 -82 170 -82 175 0 6 338 10 750
10 413 0 750 -5 750 -12z m1309 -43 c-5 -30 -36 -253 -68 -495 -184 -1366
-243 -1807 -254 -1865 l-11 -65 -274 0 -274 0 13 115 c7 63 12 120 9 125 -2 6
-82 137 -177 293 -95 156 -173 289 -173 295 0 7 104 12 230 12 127 0 230 5
230 10 0 6 31 224 70 484 38 260 66 477 61 482 -5 5 -42 -62 -81 -148 -40 -87
-132 -286 -205 -443 l-133 -285 -186 0 c-102 0 -186 -6 -186 -12 0 -7 47 -94
104 -192 l103 -180 -138 -278 -138 -278 -274 0 -274 0 126 265 c70 146 245
513 390 815 145 303 354 741 465 975 l202 425 426 0 427 0 -10 -55z m2040 11
c48 -70 40 -115 -108 -602 -165 -539 -132 -474 -292 -564 l-130 -73 89 -83 89
-84 -109 -350 c-60 -192 -123 -398 -140 -456 -25 -84 -49 -119 -113 -165 l-81
-59 -647 0 c-356 0 -647 8 -647 17 0 9 145 488 321 1065 l322 1048 -82 165
c-44 91 -81 170 -81 175 0 6 355 10 789 10 l789 0 31 -44z"/>
<path d="M1981 4083 c-34 -109 -61 -206 -61 -217 0 -10 -40 -48 -89 -83 -75
-54 -88 -73 -81 -119 32 -210 29 -235 -71 -563 -54 -179 -99 -329 -99 -334 0
-5 91 -6 202 -3 l203 6 77 250 c43 138 77 253 78 257 0 4 -49 -21 -110 -55
-95 -54 -110 -58 -111 -27 0 19 -12 132 -26 251 l-26 216 245 154 244 154 42
143 c23 79 42 149 42 155 0 7 -90 12 -199 12 l-199 0 -61 -197z"/>
<path d="M7053 4265 c-5 -8 -37 -108 -72 -221 -58 -188 -70 -211 -142 -260
l-78 -54 12 -161 c11 -153 7 -179 -81 -463 -50 -166 -92 -312 -92 -324 0 -15
66 -22 197 -22 l196 0 74 237 c92 298 92 293 -27 223 l-100 -59 -8 45 c-28
139 -49 445 -31 463 11 11 120 84 243 162 l224 142 46 149 c25 81 45 150 46
153 1 13 -399 3 -407 -10z"/>
</g>
</svg>
